<mxfile host="app.diagrams.net" modified="2022-12-22T20:45:43.522Z" agent="5.0 (Windows NT 10.0; Win64; x64) AppleWebKit/537.36 (KHTML, like Gecko) Chrome/108.0.0.0 Safari/537.36" etag="GRdztQj9aNGAFlGdRbeD" version="20.7.4" type="github" pages="2">
  <diagram name="Page-1" id="b5b7bab2-c9e2-2cf4-8b2a-24fd1a2a6d21">
    <mxGraphModel dx="787" dy="1297" grid="1" gridSize="10" guides="1" tooltips="1" connect="1" arrows="1" fold="1" page="1" pageScale="1" pageWidth="827" pageHeight="1169" background="none" math="0" shadow="0">
      <root>
        <mxCell id="0" />
        <mxCell id="1" parent="0" />
        <mxCell id="fIjWx73l_MTM7b6kRY-5-4" style="edgeStyle=orthogonalEdgeStyle;rounded=0;orthogonalLoop=1;jettySize=auto;html=1;entryX=-0.007;entryY=0.496;entryDx=0;entryDy=0;entryPerimeter=0;endArrow=none;endFill=0;" parent="1" source="fIjWx73l_MTM7b6kRY-5-1" target="fIjWx73l_MTM7b6kRY-5-2" edge="1">
          <mxGeometry relative="1" as="geometry" />
        </mxCell>
        <mxCell id="fIjWx73l_MTM7b6kRY-5-1" value="&lt;div&gt;&amp;lt;&amp;lt;device&amp;gt;&amp;gt;&lt;/div&gt;&lt;div&gt;Client&lt;br&gt;&lt;/div&gt;" style="shape=cube;whiteSpace=wrap;html=1;boundedLbl=1;backgroundOutline=1;darkOpacity=0.05;darkOpacity2=0.1;" parent="1" vertex="1">
          <mxGeometry x="190" y="320" width="120" height="80" as="geometry" />
        </mxCell>
        <mxCell id="fIjWx73l_MTM7b6kRY-5-5" style="edgeStyle=orthogonalEdgeStyle;rounded=0;orthogonalLoop=1;jettySize=auto;html=1;endArrow=none;endFill=0;" parent="1" source="fIjWx73l_MTM7b6kRY-5-2" target="fIjWx73l_MTM7b6kRY-5-3" edge="1">
          <mxGeometry relative="1" as="geometry" />
        </mxCell>
        <mxCell id="fIjWx73l_MTM7b6kRY-5-2" value="&lt;div&gt;&amp;lt;&amp;lt;device&amp;gt;&amp;gt;&lt;/div&gt;&lt;div&gt;Database&lt;br&gt;&lt;/div&gt;" style="shape=cube;whiteSpace=wrap;html=1;boundedLbl=1;backgroundOutline=1;darkOpacity=0.05;darkOpacity2=0.1;" parent="1" vertex="1">
          <mxGeometry x="400" y="320" width="120" height="80" as="geometry" />
        </mxCell>
        <mxCell id="fIjWx73l_MTM7b6kRY-5-3" value="&lt;div&gt;&amp;lt;&amp;lt;device&amp;gt;&amp;gt;&lt;/div&gt;&lt;div&gt;Docker&lt;br&gt;&lt;/div&gt;" style="shape=cube;whiteSpace=wrap;html=1;boundedLbl=1;backgroundOutline=1;darkOpacity=0.05;darkOpacity2=0.1;" parent="1" vertex="1">
          <mxGeometry x="580" y="320" width="120" height="80" as="geometry" />
        </mxCell>
        <mxCell id="fIjWx73l_MTM7b6kRY-5-6" value="Computer" style="verticalAlign=top;align=left;spacingTop=8;spacingLeft=2;spacingRight=12;shape=cube;size=10;direction=south;fontStyle=4;html=1;" parent="1" vertex="1">
          <mxGeometry x="210" y="500" width="310" height="230" as="geometry" />
        </mxCell>
        <mxCell id="fIjWx73l_MTM7b6kRY-5-7" value="Website" style="verticalAlign=top;align=left;spacingTop=8;spacingLeft=2;spacingRight=12;shape=cube;size=10;direction=south;fontStyle=4;html=1;" parent="1" vertex="1">
          <mxGeometry x="220" y="540" width="260" height="170" as="geometry" />
        </mxCell>
        <mxCell id="fIjWx73l_MTM7b6kRY-5-8" value="&lt;p style=&quot;margin:0px;margin-top:6px;text-align:center;&quot;&gt;&lt;b&gt;Component&lt;/b&gt;&lt;/p&gt;&lt;hr/&gt;&lt;p style=&quot;margin:0px;margin-left:8px;&quot;&gt;+ Attribute1: Type&lt;br/&gt;+ Attribute2: Type&lt;/p&gt;" style="align=left;overflow=fill;html=1;dropTarget=0;" parent="1" vertex="1">
          <mxGeometry x="250" y="600" width="180" height="90" as="geometry" />
        </mxCell>
        <mxCell id="fIjWx73l_MTM7b6kRY-5-9" value="" style="shape=component;jettyWidth=8;jettyHeight=4;" parent="fIjWx73l_MTM7b6kRY-5-8" vertex="1">
          <mxGeometry x="1" width="20" height="20" relative="1" as="geometry">
            <mxPoint x="-24" y="4" as="offset" />
          </mxGeometry>
        </mxCell>
        <mxCell id="fIjWx73l_MTM7b6kRY-5-10" value="Api server-Coinbase" style="verticalAlign=top;align=left;spacingTop=8;spacingLeft=2;spacingRight=12;shape=cube;size=10;direction=south;fontStyle=4;html=1;" parent="1" vertex="1">
          <mxGeometry x="990" y="490" width="270" height="170" as="geometry" />
        </mxCell>
        <mxCell id="fIjWx73l_MTM7b6kRY-5-11" value="Database" style="verticalAlign=top;align=left;spacingTop=8;spacingLeft=2;spacingRight=12;shape=cube;size=10;direction=south;fontStyle=4;html=1;" parent="1" vertex="1">
          <mxGeometry x="620" y="760" width="310" height="230" as="geometry" />
        </mxCell>
        <mxCell id="fIjWx73l_MTM7b6kRY-5-14" value="Account" style="html=1;dropTarget=0;" parent="1" vertex="1">
          <mxGeometry x="687" y="810" width="140" height="50" as="geometry" />
        </mxCell>
        <mxCell id="fIjWx73l_MTM7b6kRY-5-15" value="" style="shape=module;jettyWidth=8;jettyHeight=4;" parent="fIjWx73l_MTM7b6kRY-5-14" vertex="1">
          <mxGeometry x="1" width="20" height="20" relative="1" as="geometry">
            <mxPoint x="-27" y="7" as="offset" />
          </mxGeometry>
        </mxCell>
        <mxCell id="fIjWx73l_MTM7b6kRY-5-16" value="Coins" style="html=1;dropTarget=0;" parent="1" vertex="1">
          <mxGeometry x="1070" y="535" width="140" height="50" as="geometry" />
        </mxCell>
        <mxCell id="fIjWx73l_MTM7b6kRY-5-17" value="" style="shape=module;jettyWidth=8;jettyHeight=4;" parent="fIjWx73l_MTM7b6kRY-5-16" vertex="1">
          <mxGeometry x="1" width="20" height="20" relative="1" as="geometry">
            <mxPoint x="-27" y="7" as="offset" />
          </mxGeometry>
        </mxCell>
        <mxCell id="fIjWx73l_MTM7b6kRY-5-18" value="Api server-news" style="verticalAlign=top;align=left;spacingTop=8;spacingLeft=2;spacingRight=12;shape=cube;size=10;direction=south;fontStyle=4;html=1;" parent="1" vertex="1">
          <mxGeometry x="990" y="230" width="240" height="150" as="geometry" />
        </mxCell>
        <mxCell id="fIjWx73l_MTM7b6kRY-5-19" value="News" style="html=1;dropTarget=0;" parent="1" vertex="1">
          <mxGeometry x="1055" y="280" width="140" height="50" as="geometry" />
        </mxCell>
        <mxCell id="fIjWx73l_MTM7b6kRY-5-20" value="" style="shape=module;jettyWidth=8;jettyHeight=4;" parent="fIjWx73l_MTM7b6kRY-5-19" vertex="1">
          <mxGeometry x="1" width="20" height="20" relative="1" as="geometry">
            <mxPoint x="-27" y="7" as="offset" />
          </mxGeometry>
        </mxCell>
      </root>
    </mxGraphModel>
  </diagram>
  <diagram id="sGTwtMbzMhG8YggDor9M" name="Ideia inicial">
    <mxGraphModel dx="462" dy="768" grid="1" gridSize="10" guides="1" tooltips="1" connect="1" arrows="1" fold="1" page="1" pageScale="1" pageWidth="827" pageHeight="1169" math="0" shadow="0">
      <root>
        <mxCell id="0" />
        <mxCell id="1" parent="0" />
        <mxCell id="pbectdiW-8Ejznnw09L4-1" value="Computer" style="verticalAlign=top;align=left;spacingTop=8;spacingLeft=2;spacingRight=12;shape=cube;size=10;direction=south;fontStyle=4;html=1;" vertex="1" parent="1">
          <mxGeometry x="230" y="220" width="310" height="230" as="geometry" />
        </mxCell>
        <mxCell id="pbectdiW-8Ejznnw09L4-2" value="Web Browser" style="verticalAlign=top;align=left;spacingTop=8;spacingLeft=2;spacingRight=12;shape=cube;size=10;direction=south;fontStyle=4;html=1;" vertex="1" parent="1">
          <mxGeometry x="272" y="490" width="283.03" height="210" as="geometry" />
        </mxCell>
        <mxCell id="pbectdiW-8Ejznnw09L4-3" value="Web Browser" style="verticalAlign=top;align=left;spacingTop=8;spacingLeft=2;spacingRight=12;shape=cube;size=10;direction=south;fontStyle=4;html=1;" vertex="1" parent="1">
          <mxGeometry x="282" y="500" width="283.03" height="210" as="geometry" />
        </mxCell>
        <mxCell id="nYYjxuZt-Mi0k5L1FoQl-1" value="&lt;p style=&quot;margin:0px;margin-top:6px;text-align:center;&quot;&gt;&lt;b&gt;Component&lt;/b&gt;&lt;/p&gt;&lt;hr&gt;&lt;p style=&quot;margin:0px;margin-left:8px;&quot;&gt;&lt;br&gt;&lt;/p&gt;" style="align=left;overflow=fill;html=1;dropTarget=0;" vertex="1" parent="1">
          <mxGeometry x="250" y="600" width="180" height="90" as="geometry" />
        </mxCell>
        <mxCell id="nYYjxuZt-Mi0k5L1FoQl-2" value="" style="shape=component;jettyWidth=8;jettyHeight=4;" vertex="1" parent="nYYjxuZt-Mi0k5L1FoQl-1">
          <mxGeometry x="1" width="20" height="20" relative="1" as="geometry">
            <mxPoint x="-24" y="4" as="offset" />
          </mxGeometry>
        </mxCell>
      </root>
    </mxGraphModel>
  </diagram>
</mxfile>
